<svg xmlns="http://www.w3.org/2000/svg" width="35" height="34" viewBox="0 0 35 34"><defs><clipPath id="2j5ra"><path fill="#fff" d="M17.516 0C26.775 0 34.28 7.59 34.28 16.953s-7.506 16.953-16.765 16.953C8.256 33.906.75 26.316.75 16.953S8.256 0 17.516 0z"/></clipPath></defs><g><g><path fill="none" stroke="#fff" stroke-miterlimit="50" stroke-width="2" d="M17.516 0C26.775 0 34.28 7.59 34.28 16.953s-7.506 16.953-16.765 16.953C8.256 33.906.75 26.316.75 16.953S8.256 0 17.516 0z" clip-path="url(&quot;#2j5ra&quot;)"/></g><g><path fill="#fff" d="M19.29 24.002l-7.236-6.835.453-.428 7.235-6.836.905.855-6.784 6.409 6.331 5.98z"/></g></g></svg>